<mxfile host="app.diagrams.net" modified="2024-01-17T16:15:43.790Z" agent="Mozilla/5.0 (Windows NT 10.0; Win64; x64) AppleWebKit/537.36 (KHTML, like Gecko) Chrome/120.0.0.0 Safari/537.36 Edg/120.0.0.0" version="22.1.21" etag="jT-twxH61b1l4IVnUN9-" type="github">
  <diagram name="PÃ¡gina-1" id="-qfZhR8AnmK-oDqmSww6">
    <mxGraphModel>
      <root>
        <mxCell id="0" />
        <mxCell id="1" parent="0" />
      </root>
    </mxGraphModel>
  </diagram>
</mxfile>
